<?xml version="1.0" encoding="UTF-8"?>
<svg id="Layer_1" data-name="Layer 1" xmlns="http://www.w3.org/2000/svg" viewBox="0 0 128 128">
  <path d="M115.44,61.78v5.55c-.51,1.35,0,3.25-.75,4.48h-6.94l.64-8.64c-1.18-37.09-44.95-56.82-73.17-32.34-29.89,25.92-13.12,74.4,25.64,77.49h29.38c-4.6,3.24-10.19,4.93-15.64,6.26l-4.45.79c-3.49-.19-7.23.25-10.68,0C19.7,112.5-1.01,64.53,23.48,32.98,52.73-4.72,112.74,14.32,115.44,61.78Z"/>
  <path d="M92.79,71.81c1.97-8.67.47-17.62-4.74-24.83-11.78-16.32-36.38-16.22-48,.21-13.72,19.42,0,45.78,23.35,46.62l42.85.1c-2.01,2.37-3.77,5.13-6.31,6.94-12.13-.43-24.67.59-36.76.01-33.42-1.58-48.25-42.22-23.06-64.27,22.95-20.09,59.11-4.34,60.58,25.92.14,2.97.05,6.52-.97,9.3h-6.94Z"/>
  <path d="M76.98,71.81c1.77-3.46,2.45-7.04,1.61-10.89-3.86-17.64-31.29-13.89-29.11,5.39.68,6.03,7.03,12.76,13.3,12.76h50.53l-2.6,7.01-48.36.03c-20.94-1.89-27.81-29.61-9.49-40.65,17.76-10.71,39.03,7.23,31.71,26.35h-7.59Z"/>
</svg>