<?xml version="1.0" encoding="UTF-8"?>
<svg id="Layer_1" data-name="Layer 1" xmlns="http://www.w3.org/2000/svg" viewBox="0 0 128 128">
  <defs>
    <style>
      .cls-1 {
        fill: #fff;
      }
    </style>
  </defs>
  <path class="cls-1" d="M88.49,62.46c-12.83,4.21-26.26,6.83-39.73,8.08-5.96.55-24.24,2.05-28.94.22-7.76-3.01-8.46-14.58-1.14-18.64,4.45-2.47,16.79-1.14,22.48-1.31,6.94-.22,14.11-.47,21.07-.92,8.48-.54,17.02-1.6,25.37-3.14-4.95-13.28-18.69-20.08-31.18-24.7l-15.95-4.02c10.85-.11,21.75.16,32.54,1.35s32.47,4.63,39.03,13.94-3.55,19.69-11.65,23.76c1.11,30.11-26.12,45.74-52.28,50.52-6.18,1.13-23.36,3.47-28.6,1.2-7.26-3.15-8.01-13.93-1.35-18.13,4.32-2.72,14.7-1.71,20.28-2.16,18.01-1.46,43.49-6.7,50.05-26.03ZM54.38,19.81c16.15,3.1,32.13,10.79,41.58,24.63,14.77-5.42,3.84-13.08-4.78-16.76-10.08-4.3-24.43-6.95-35.36-8.18-.49-.06-1.53-.52-1.44.32Z"/>
</svg>